<svg width="21" height="20" viewBox="0 0 21 20" fill="none" xmlns="http://www.w3.org/2000/svg">
<path d="M17.4422 7.94254L11.1922 14.1925C11.1341 14.2506 11.0652 14.2967 10.9893 14.3282C10.9134 14.3597 10.8321 14.3758 10.75 14.3758C10.6678 14.3758 10.5865 14.3597 10.5106 14.3282C10.4348 14.2967 10.3658 14.2506 10.3078 14.1925L4.05779 7.94254C3.94052 7.82526 3.87463 7.6662 3.87463 7.50035C3.87463 7.3345 3.94052 7.17544 4.05779 7.05816C4.17507 6.94088 4.33413 6.875 4.49998 6.875C4.66583 6.875 4.82489 6.94088 4.94217 7.05816L10.75 12.8668L16.5578 7.05816C16.6159 7.00009 16.6848 6.95403 16.7607 6.9226C16.8365 6.89117 16.9179 6.875 17 6.875C17.0821 6.875 17.1634 6.89117 17.2393 6.9226C17.3152 6.95403 17.3841 7.00009 17.4422 7.05816C17.5002 7.11623 17.5463 7.18517 17.5777 7.26104C17.6092 7.33691 17.6253 7.41823 17.6253 7.50035C17.6253 7.58247 17.6092 7.66379 17.5777 7.73966C17.5463 7.81553 17.5002 7.88447 17.4422 7.94254Z" fill="#11151D"/>
</svg>
