<svg width="21" height="20" viewBox="0 0 21 20" fill="none" xmlns="http://www.w3.org/2000/svg">
<path d="M18.1922 17.0575L14.2805 13.1466C15.4143 11.7854 15.9797 10.0395 15.859 8.27214C15.7383 6.50475 14.9409 4.85192 13.6327 3.65748C12.3244 2.46304 10.606 1.81895 8.83498 1.8592C7.06394 1.89945 5.37659 2.62094 4.12395 3.87358C2.87131 5.12622 2.14982 6.81357 2.10957 8.58462C2.06932 10.3557 2.71341 12.074 3.90785 13.3823C5.10229 14.6906 6.75512 15.488 8.5225 15.6086C10.2899 15.7293 12.0358 15.1639 13.3969 14.0302L17.3079 17.9419C17.3659 17.9999 17.4349 18.046 17.5107 18.0774C17.5866 18.1089 17.6679 18.125 17.7501 18.125C17.8322 18.125 17.9135 18.1089 17.9894 18.0774C18.0652 18.046 18.1342 17.9999 18.1922 17.9419C18.2503 17.8838 18.2964 17.8149 18.3278 17.739C18.3592 17.6631 18.3754 17.5818 18.3754 17.4997C18.3754 17.4176 18.3592 17.3363 18.3278 17.2604C18.2964 17.1845 18.2503 17.1156 18.1922 17.0575ZM3.37506 8.74969C3.37506 7.63717 3.70496 6.54963 4.32304 5.62461C4.94112 4.69958 5.81963 3.97861 6.84746 3.55287C7.8753 3.12712 9.0063 3.01573 10.0974 3.23277C11.1886 3.44981 12.1909 3.98554 12.9775 4.77221C13.7642 5.55888 14.2999 6.56116 14.517 7.65231C14.734 8.74345 14.6226 9.87445 14.1969 10.9023C13.7711 11.9301 13.0502 12.8086 12.1251 13.4267C11.2001 14.0448 10.1126 14.3747 9.00006 14.3747C7.50872 14.373 6.07894 13.7799 5.02441 12.7253C3.96987 11.6708 3.37671 10.241 3.37506 8.74969Z" fill="#11151D"/>
</svg>
