<svg width="21" height="20" viewBox="0 0 21 20" fill="none" xmlns="http://www.w3.org/2000/svg">
<path d="M18.1922 17.0578L14.2805 13.1469C15.4143 11.7857 15.9797 10.0398 15.859 8.27244C15.7383 6.50506 14.9409 4.85223 13.6327 3.65779C12.3244 2.46334 10.606 1.81926 8.83498 1.85951C7.06394 1.89976 5.37659 2.62125 4.12395 3.87389C2.87131 5.12653 2.14982 6.81388 2.10957 8.58492C2.06932 10.356 2.71341 12.0744 3.90785 13.3826C5.10229 14.6909 6.75512 15.4883 8.5225 15.6089C10.2899 15.7296 12.0358 15.1642 13.3969 14.0305L17.3079 17.9422C17.3659 18.0003 17.4349 18.0463 17.5107 18.0777C17.5866 18.1092 17.6679 18.1253 17.7501 18.1253C17.8322 18.1253 17.9135 18.1092 17.9894 18.0777C18.0652 18.0463 18.1342 18.0003 18.1922 17.9422C18.2503 17.8841 18.2964 17.8152 18.3278 17.7393C18.3592 17.6634 18.3754 17.5821 18.3754 17.5C18.3754 17.4179 18.3592 17.3366 18.3278 17.2607C18.2964 17.1848 18.2503 17.1159 18.1922 17.0578ZM3.37506 8.75C3.37506 7.63748 3.70496 6.54994 4.32304 5.62491C4.94112 4.69989 5.81963 3.97892 6.84746 3.55317C7.8753 3.12743 9.0063 3.01604 10.0974 3.23308C11.1886 3.45012 12.1909 3.98585 12.9775 4.77252C13.7642 5.55919 14.2999 6.56147 14.517 7.65261C14.734 8.74376 14.6226 9.87475 14.1969 10.9026C13.7711 11.9304 13.0502 12.8089 12.1251 13.427C11.2001 14.0451 10.1126 14.375 9.00006 14.375C7.50872 14.3733 6.07894 13.7802 5.02441 12.7256C3.96987 11.6711 3.37671 10.2413 3.37506 8.75Z" fill="#404040"/>
</svg>
