<svg width="20" height="21" viewBox="0 0 20 21" fill="none" xmlns="http://www.w3.org/2000/svg">
<path d="M17.5 10.5C17.5 10.6658 17.4342 10.8247 17.3169 10.9419C17.1997 11.0592 17.0408 11.125 16.875 11.125H10.625V17.375C10.625 17.5408 10.5592 17.6997 10.4419 17.8169C10.3247 17.9342 10.1658 18 10 18C9.83424 18 9.67527 17.9342 9.55806 17.8169C9.44085 17.6997 9.375 17.5408 9.375 17.375V11.125H3.125C2.95924 11.125 2.80027 11.0592 2.68306 10.9419C2.56585 10.8247 2.5 10.6658 2.5 10.5C2.5 10.3342 2.56585 10.1753 2.68306 10.0581C2.80027 9.94085 2.95924 9.875 3.125 9.875H9.375V3.625C9.375 3.45924 9.44085 3.30027 9.55806 3.18306C9.67527 3.06585 9.83424 3 10 3C10.1658 3 10.3247 3.06585 10.4419 3.18306C10.5592 3.30027 10.625 3.45924 10.625 3.625V9.875H16.875C17.0408 9.875 17.1997 9.94085 17.3169 10.0581C17.4342 10.1753 17.5 10.3342 17.5 10.5Z" fill="white"/>
</svg>
